<svg id="Capa_1" enable-background="new 0 0 512 512" height="512" viewBox="0 0 512 512" width="512" xmlns="http://www.w3.org/2000/svg"><g><path d="m58.05 418.344c-36.724-44.725-58.586-102.118-58.04-164.631 1.225-140.201 116.11-253.888 256.316-253.713 141.235.176 255.674 114.724 255.674 256 0 84.519-40.958 159.471-104.109 206.091-1.886 1.392-4.538 1.105-6.091-.65-46.903-53.016-115.448-86.441-191.8-86.441-53.499 0-103.165 16.411-144.238 44.473-2.469 1.686-5.814 1.182-7.712-1.129z" fill="#5db33a"/><path d="m467.681 256c0 116.908-94.773 211.681-211.681 211.681s-211.681-94.773-211.681-211.681 94.773-211.681 211.681-211.681 211.681 94.773 211.681 211.681z" fill="#6dc54a"/><path d="m443.124 228.516-4.511 24.59c-.747 4.074-4.656 6.771-8.73 6.024s-6.771-4.656-6.024-8.73l4.511-24.59c.747-4.074 4.656-6.771 8.73-6.024 4.074.748 6.771 4.656 6.024 8.73zm-49.509-4.651c-2.353-3.409-7.023-4.266-10.433-1.914s-4.266 7.023-1.914 10.432l14.198 20.577c2.353 3.409 7.023 4.266 10.433 1.914 3.409-2.352 4.266-7.023 1.914-10.432zm93.124 17.083c-2.353-3.409-7.023-4.266-10.433-1.914l-20.577 14.198c-3.409 2.352-4.266 7.023-1.914 10.432 2.352 3.409 7.023 4.266 10.432 1.914l20.577-14.198c3.41-2.352 4.267-7.023 1.915-10.432z" fill="#c0e6b1"/><path d="m121.5 353.068c-9.695 12.012-15.5 27.294-15.5 43.932v44.171c0 9.235-10.868 14.195-17.839 8.137-10.902-9.474-20.995-19.855-30.161-31.025v-21.156c0-35.336 26.183-64.558 60.207-69.321 3.2-.447 15.292 10.395 3.293 25.262z" fill="#f44545"/><path d="m378 397.128v53.819c0 19.482-11.91 37.064-30.092 44.06-8.271 3.183-16.749 5.948-25.408 8.271-21.206 5.689-168.267-7.23-209-34.573-8.913-5.983-17.429-12.511-25.5-19.537v-52.04c0-31.505 20.813-58.149 49.44-66.932 6.501-1.995 176.622-2.873 179.572-2.493 34.403 4.421 60.988 33.818 60.988 69.425z" fill="#fb5858"/><path d="m322.5 325.95v177.328c-21.206 5.688-43.499 8.722-66.5 8.722-52.746 0-101.767-15.952-142.5-43.295v-132.047c0-8.675 7.032-15.708 15.708-15.708h188.292c2.761 0 5 2.239 5 5z" fill="#fff36c"/><path d="m226 320.95v189.31c-5.386-.629-10.721-1.424-16-2.382v-186.928zm-112.5 5v142.755c5.201 3.491 10.538 6.797 16 9.907v-157.662h-11c-2.761 0-5 2.239-5 5z" fill="#ffc14f"/><path d="m129.085 430h80.915c4.83 3.276 11.17 3.276 16 0h96.5v30h-96.5c-4.999-2.672-11.001-2.672-16 0h-80.915c-3.666 0-6.638-2.972-6.638-6.638v-16.723c0-3.667 2.972-6.639 6.638-6.639zm-6.638-43.362v16.723c0 3.666 2.972 6.638 6.638 6.638h80.915c4.097-4.287 10.852-4.566 15.289-.631l.711.632h96.5v-30h-96.5c-4.963 2.811-11.037 2.811-16 0h-80.915c-3.666 0-6.638 2.972-6.638 6.638z" fill="#fffac1"/><path d="m113.5 430h16v30h-16zm0-20h16v-30h-16zm96.5-30v30h16v-30zm0 80h16v-30h-16z" fill="#fff36c"/><path d="m133 202.128v10c0 13.807-11.193 25-25 25s-25-11.193-25-25v-10c0-13.807 11.193-25 25-25s25 11.193 25 25z" fill="#f2bb88"/><path d="m98 197.128v20c0 8.178 3.927 15.439 9.998 20-13.806-.002-24.998-11.194-24.998-25v-10c0-13.806 11.192-24.999 24.998-25-6.071 4.561-9.998 11.821-9.998 20zm230-20v-20c0-60.751-49.249-110-110-110-60.751 0-110 49.249-110 110v40c0 50.351 33.83 92.799 80 105.858v34.142c0 16.569 13.431 30 30 30s30-13.431 30-30v-34.142c33.587-9.5 60.636-34.556 72.89-66.89 2.254.668 4.639 1.032 7.11 1.032 13.807 0 25-11.193 25-25v-10c0-13.807-11.193-25-25-25z" fill="#e3a76f"/><path d="m328 161.077v38.933c0 49.437-35.875 91.047-84.636 103.362-9.403 2.375-19.326 2.375-28.729 0-48.76-12.315-84.635-53.925-84.635-103.362v-38.933c0-54.178 43.086-98.957 99-106.077 55.914 7.121 99 51.899 99 106.077z" fill="#f2bb88"/><path d="m185.5 164.628c0 8.284-6.716 15-15 15s-15-6.716-15-15 6.716-15 15-15 15 6.716 15 15zm80-15c-8.284 0-15 6.716-15 15s6.716 15 15 15 15-6.716 15-15-6.716-15-15-15z" fill="#2b4d66"/><path d="m240.691 237c1.543 2.437 2.396 5.34 2.303 8.46-.246 8.18-7.266 14.54-15.45 14.54h-19.086c-8.185 0-15.205-6.361-15.45-14.543-.093-3.115.761-6.02 2.301-8.455.193-.306.614-.39.929-.213 2.17 1.224 4.669 1.933 7.338 1.933h28.851c2.672 0 5.172-.71 7.343-1.936.313-.176.728-.091.921.214z" fill="#b27a49"/><path d="m188 157.128c0 4.142-3.358 7.5-7.5 7.5s-7.5-3.358-7.5-7.5 3.358-7.5 7.5-7.5 7.5 3.357 7.5 7.5zm87.5-7.5c-4.142 0-7.5 3.358-7.5 7.5s3.358 7.5 7.5 7.5 7.5-3.358 7.5-7.5-3.358-7.5-7.5-7.5zm-47.5 80.372h-20c-5.343 0-10.033 2.794-12.691 7 2.657 4.206 7.347 7 12.691 7h20c5.343 0 10.033-2.794 12.691-7-2.658-4.206-7.348-7-12.691-7z" fill="#fff5f5"/><path d="m232.5 193.252c2.929 2.93 2.929 7.678 0 10.607-3.875 3.875-9.024 6.009-14.5 6.009s-10.625-2.134-14.5-6.009c-2.929-2.93-2.929-7.678 0-10.607 2.929-2.928 7.678-2.928 10.606 0 1.042 1.042 2.424 1.616 3.893 1.616s2.851-.574 3.893-1.616c2.93-2.928 7.679-2.928 10.608 0zm-46.133-67.641-23.8-3.096c-4.107-.534-7.87 2.362-8.405 6.47-.534 4.108 2.362 7.871 6.47 8.405l23.8 3.096c4.107.534 7.87-2.362 8.405-6.47.534-4.108-2.362-7.871-6.47-8.405zm95.47 3.374c-.534-4.107-4.297-7.004-8.405-6.47l-23.8 3.096c-4.108.534-7.004 4.297-6.47 8.405s4.297 7.004 8.405 6.47l23.8-3.096c4.108-.535 7.004-4.298 6.47-8.405z" fill="#d6995c"/><path d="m129.041 145.854c-1.596 17.991-10.533 31.274-21.043 31.274l-3.934-75.915h28.936zm177.916 0c1.596 17.991 10.533 31.274 21.043 31.274l4.149-75.915h-29.151zm152.043 170.646c0 4.142-3.358 7.5-7.5 7.5h-7c-9.796 0-18.125-6.262-21.215-15h-90.571c-3.089 8.738-11.419 15-21.215 15h-7c-4.142 0-7.5-3.358-7.5-7.5s3.358-7.5 7.5-7.5h9c4.219 0 7.624-3.483 7.497-7.731-.123-4.105-3.704-7.269-7.811-7.269h-8.685c-4.142 0-7.5-3.358-7.5-7.5s3.358-7.5 7.5-7.5h7c9.796 0 18.125 6.262 21.215 15h90.571c3.089-8.738 11.419-15 21.215-15h7c4.142 0 7.5 3.358 7.5 7.5s-3.358 7.5-7.5 7.5h-9c-4.219 0-7.624 3.483-7.497 7.731.123 4.105 3.704 7.269 7.811 7.269h8.686c4.141 0 7.499 3.358 7.499 7.5z" fill="#464646"/><path d="m394 313c0 5.523-4.477 10-10 10h-28c-5.523 0-10-4.477-10-10v-5.819c0-2.309 1.872-4.181 4.181-4.181h33.819c5.523 0 10 4.477 10 10z" fill="#e3a76f"/><path d="m326 90c0 5.523-4.477 10-10 10h-196c-5.523 0-10-4.477-10-10 0-44.183 35.817-80 80-80h56c44.183 0 80 35.817 80 80z" fill="#fff36c"/><path d="m226 8v61c0 4.418-3.582 8-8 8s-8-3.582-8-8v-61c0-4.418 3.582-8 8-8s8 3.582 8 8zm-49-8c-4.418 0-8 3.582-8 8v4.785c-33.996 9.224-59 40.299-59 77.215 0 5.523 4.477 10 10 10h41c-5.523 0-10-4.477-10-10 0-19.178 6.748-36.78 18-50.561v29.561c0 4.418 3.582 8 8 8s8-3.582 8-8v-61c0-4.418-3.582-8-8-8zm82 0c-4.418 0-8 3.582-8 8v61c0 4.418 3.582 8 8 8s8-3.582 8-8v-61c0-4.418-3.582-8-8-8z" fill="#ffc14f"/><path d="m159.213 100c0 5.523-4.477 10-10 10h-46.863c-5.523 0-10-4.477-10-10s4.477-10 10-10h46.863c5.523 0 10 4.477 10 10z" fill="#fff36c"/><path d="m343.65 100c0 5.523-4.477 10-10 10h-186.801c-5.523 0-10-4.477-10-10s4.477-10 10-10h186.801c5.523 0 10 4.477 10 10z" fill="#fff68e"/><path d="m418 305.17v23.83c-8.493 3.64-14 11.991-14 21.231v72.816c0 9.41-1.294 18.57-3.908 27.107-4.688 15.315-15.677 27.936-30.01 35.083-8.439 4.208-17.144 7.964-26.082 11.235v-187.472c0-11.046 8.954-20 20-20h24c8.583 0 15.903 5.407 18.74 13h8.089c1.752 0 3.171 1.419 3.171 3.17z" fill="#e3a76f"/><path d="m418 328v3c0 3.866-2.194 7.219-5.404 8.884-2.901 1.504-4.596 4.631-4.596 7.899v114.228c-12.51 9.245-25.892 17.379-40 24.253v-134.629c0-5.946-1.559-11.727-4.028-17.137-.036-.078-.071-.168-.104-.268-1.042-3.069 1.387-6.23 4.628-6.23zm-60-41c0-5.743-4.842-10.355-10.666-9.978-5.315.344-9.334 4.995-9.334 10.321v28.118c0 4.256 2.831 7.993 6.928 9.145 6.06 1.704 12.072-2.85 12.072-9.145v-11.461h8.383z" fill="#f2bb88"/><path d="m398 305c0 5.523-4.477 10-10 10-5.522 0-9.999-4.476-10-9.998-.001 5.522-4.478 9.998-10 9.998-5.523 0-10-4.477-10-10v-18c0-5.523 4.477-10 10-10 5.522 0 9.999 4.476 10 9.998.001-5.522 4.478-9.998 10-9.998 5.523 0 10 4.477 10 10 0-5.523 0 23.523 0 18z" fill="#f2d1a5"/><path d="m408 315c-5.523 0-10-4.477-10-10 0 5.523-4.477 10-10 10s-10-4.477-10-10v-18c0-5.523 4.477-10 10-10s10 4.477 10 10c0-5.523 4.477-10 10-10s5.523 38 0 38z" fill="#ffe4c2"/><path d="m408 315c-5.523 0-10-4.477-10-10v-18c0-5.523 4.477-10 10-10 5.523 0 10 4.477 10 10v18c0 5.523-4.477 10-10 10z" fill="#fff2de"/><path d="m381 306c0 8.284-6.716 15-15 15h-8v10c0 5.523-4.477 10-10 10s-10-4.477-10-10v-25c0-2.761 2.239-5 5-5h33c2.761 0 5 2.239 5 5z" fill="#d6995c"/></g></svg>